<svg xmlns="http://www.w3.org/2000/svg" width="1920" height="360" viewBox="0 0 1920 360" fill="none">

<defs>
  <linearGradient id="g" x1="0" y1="0" x2="1" y2="1">
    <stop offset="0" stop-color="#0C1713"/>
    <stop offset=".6" stop-color="#08110E"/>
    <stop offset="1" stop-color="#10201A"/>
  </linearGradient>
  <radialGradient id="rg" cx=".78" cy=".45" r=".55">
    <stop offset="0" stop-color="#3C8A63" stop-opacity=".18"/>
    <stop offset="1" stop-color="#08110E" stop-opacity="0"/>
  </radialGradient>
</defs>
<rect width="1920" height="360" rx="24" fill="url(#g)"/>
<rect width="1920" height="360" rx="24" fill="url(#rg)"/>
<g stroke="#7ED9A3" stroke-opacity=".32" fill="none">
  <path d="M1090 290 C1170 140 1240 110 1320 210 S1490 290 1570 145" stroke-width="3"/>
  <path d="M1145 270 H1600" stroke-width="1"/>
  <path d="M1320 70 V300" stroke-width="1"/>
  <circle cx="1320" cy="210" r="5" fill="#7ED9A3"/>
  <polygon points="1650,245 1742,105 1830,245" stroke-width="2"/>
  <circle cx="1742" cy="105" r="5" fill="#E9DFC3"/>
  <circle cx="1650" cy="245" r="5" fill="#E9DFC3"/>
  <circle cx="1830" cy="245" r="5" fill="#E9DFC3"/>
</g>
<g fill="#E9DFC3" opacity=".58" font-family="Georgia,serif">
  <text x="1030" y="102" font-size="42">∫ f(x) dx</text>
  <text x="1490" y="92" font-size="48">Σ</text>
  <text x="1740" y="82" font-size="34">π</text>
  <text x="980" y="230" font-size="30">d/dx</text>
  <text x="1540" y="305" font-size="28">e^{iπ}+1=0</text>
</g>
<path d="M0 315 C350 255 520 365 870 300 S1500 270 1920 320 V360 H0Z" fill="#3C8A63" opacity=".10"/>

</svg>