<svg xmlns="http://www.w3.org/2000/svg" width="400" height="400" viewBox="0 0 400 400" fill="none">

<defs>
  <linearGradient id="blob" x1="0" y1="0" x2="1" y2="1">
    <stop offset="0" stop-color="#569E74"/>
    <stop offset="1" stop-color="#1A5A44"/>
  </linearGradient>
</defs>
<rect width="400" height="400" fill="white"/>
<g opacity="0.85">
  <path d="M168 44 C247 14 334 48 352 120 C367 182 322 258 269 309 C216 360 134 388 82 347 C32 308 14 229 24 160 C34 91 89 74 168 44Z" fill="#7ABF8D" opacity="0.5"/>
  <path d="M149 62 C232 28 316 68 332 136 C349 206 307 274 256 321 C203 371 127 352 83 311 C40 270 26 215 38 151 C48 94 84 89 149 62Z" fill="url(#blob)"/>
</g>

</svg>